<?xml version="1.0" encoding="UTF-8"?>
<svg id="_민소매" data-name="민소매" xmlns="http://www.w3.org/2000/svg" viewBox="0 0 860 1200">
  <defs>
    <style>
      .cls-1 {
        fill: #fff;
      }
    </style>
  </defs>
  <path class="cls-1" d="M533.46,507.34c-19.91-6.7-34.72-32.03-34.72-62.27,0-4.85.39-9.57,1.11-14.11-4.79-1.91-10-2.96-15.43-2.96h-6.32c.15,1.69.24,3.41.24,5.15,0,28.77-21.64,52.1-48.34,52.1s-48.34-23.33-48.34-52.1c0-1.74.08-3.45.24-5.15h-6.32c-5.42,0-10.63,1.05-15.43,2.96.72,4.54,1.11,9.26,1.11,14.11,0,30.24-14.81,55.57-34.72,62.27l-33.14,188.01h273.2l-33.14-188.01Z"/>
</svg>