<?xml version="1.0" encoding="UTF-8"?>
<svg id="_패딩" data-name="패딩" xmlns="http://www.w3.org/2000/svg" viewBox="0 0 860 1200">
  <defs>
    <style>
      .cls-1 {
        fill: #ccb5a3;
      }
    </style>
  </defs>
  <path class="cls-1" d="M609.88,686.2l-6.37-15.01v-23.02c0-8.97-4-17.06-10.3-22.57v-22.31c0-12.52-7.78-23.31-18.73-27.78,2.04-4.04,3.19-8.6,3.19-13.41v-10.63c0-13.63-9.22-25.21-21.73-28.82.96-2.93,1.49-6.05,1.49-9.29v-10.63c0-14.67-10.67-26.95-24.63-29.51.68-2.49,1.05-5.11,1.05-7.81v-10.63c0-16.5-13.5-30-30-30h-13.83v-12.64c1.23-6.31-1.72-13.15-8.15-16.2l-26.91-12.77c-16.96-8.04-36.63-8.04-53.59,0l-26.91,12.77c-4.68,2.22-7.52,6.45-8.24,11.03h-.2v17.82h-9.87c-16.5,0-30,13.5-30,30v10.63c0,2.7.37,5.32,1.05,7.81-13.96,2.55-24.63,14.84-24.63,29.51v10.63c0,3.24.53,6.36,1.49,9.29-12.51,3.61-21.73,15.19-21.73,28.82v10.63c0,4.81,1.16,9.37,3.19,13.41-10.96,4.48-18.73,15.26-18.73,27.78v22.31c-6.3,5.51-10.3,13.59-10.3,22.57v23.02l-6.36,15.01c-3.35,7.91.37,17.13,8.29,20.49l29.91,12.68c.21,16.32,13.62,29.61,29.99,29.61h223.39c16.37,0,29.78-13.29,29.99-29.61l29.91-12.68c7.91-3.36,11.64-12.57,8.29-20.49Z"/>
</svg>