<?xml version="1.0" encoding="UTF-8"?>
<svg id="_가디건" data-name="가디건" xmlns="http://www.w3.org/2000/svg" viewBox="0 0 860 1200">
  <defs>
    <style>
      .cls-1 {
        fill: #ccb5a3;
      }
    </style>
  </defs>
  <path class="cls-1" d="M386.69,423.97h-11.43c-20.54,0-38.13,14.79-41.85,35.12l-.02-1.41-80.54,237.77c-.68,2.01-.04,4.22,1.6,5.6.81.68,1.82,1.47,3.04,2.36l-1.63,3.85c-1.06,2.5-.51,5.36,1.37,7.34,4.95,5.21,16.76,14.06,39.53,13.67l-1.18,13.58c-.54,6.27,2.41,12.32,7.71,15.87,16.66,11.15,44.07,13.44,64.02,13.42,13.64-.02,24.67-10.92,24.67-24.31v-317.67c0-2.87-2.37-5.19-5.29-5.19Z"/>
  <path class="cls-1" d="M473.31,423.97h11.43c20.54,0,38.13,14.79,41.85,35.12l.02-1.41,80.54,237.77c.68,2.01.04,4.22-1.6,5.6-.81.68-1.82,1.47-3.04,2.36l1.63,3.85c1.06,2.5.51,5.36-1.37,7.34-4.95,5.21-16.76,14.06-39.53,13.67l1.18,13.58c.54,6.27-2.41,12.32-7.71,15.87-16.66,11.15-44.07,13.44-64.02,13.42-13.64-.02-24.67-10.92-24.67-24.31v-53.44s0-97.72,0-97.72v-166.52c0-2.87,2.37-5.19,5.29-5.19Z"/>
</svg>