<?xml version="1.0" encoding="UTF-8"?>
<svg id="_레이어_1" xmlns="http://www.w3.org/2000/svg" version="1.1" viewBox="0 0 860 1200">
  <!-- Generator: Adobe Illustrator 29.6.1, SVG Export Plug-In . SVG Version: 2.1.1 Build 9)  -->
  <defs>
    <style>
      .st0 {
        fill: #fff4ee;
      }

      .st1 {
        fill: #423e3f;
      }

      .st2 {
        fill: #fff;
      }

      .st3 {
        fill: #63595b;
      }

      .st4 {
        fill: #f9d2d9;
      }
    </style>
  </defs>
  <path class="st1" d="M632,445.5c-129.5,24.7-262.4,24.7-391.9,0,19.6-102.7,39.2-205.5,58.8-308.2,90.6,17.3,183.6,17.3,274.2,0,19.6,102.7,39.2,205.5,58.8,308.2h0Z"/>
  <path class="st4" d="M327.3,738.3l74.8-279.1-44.3-11.9c-10.2-2.7-20.6,3.3-23.3,13.5l-69.9,260.7c-16.2,6.3-29.1,20.2-33.4,38.5-6.7,28.5,10.7,57.7,39,65.4,29.3,8,59.4-9.4,67.3-38.7,4.7-17.5.4-35.3-10.2-48.4h0Z"/>
  <path class="st4" d="M532.7,738.3l-74.8-279.1,44.3-11.9c10.2-2.7,20.6,3.3,23.3,13.5l69.9,260.7c16.2,6.3,29.1,20.2,33.4,38.5,6.7,28.5-10.7,57.7-39,65.4-29.3,8-59.4-9.4-67.3-38.7-4.7-17.5-.3-35.3,10.2-48.4h0Z"/>
  <path class="st4" d="M543.3,1032.4c-5.2-3.2-10.4-6-15.7-8.2l19.9-349.4h-234.5l19.9,349.4c-5.3,2.3-10.6,5-15.7,8.2-39.9,25-57.3,69-38.9,98.5,18.4,29.4,65.7,33.1,105.6,8.1,39.9-25,57.3-69,38.9-98.5,0,0,0,0-.1-.1v-268.8h15.3v268.8s0,0-.1.1c-18.4,29.4-1,73.5,38.9,98.5,39.9,25,87.2,21.3,105.6-8.1,18.4-29.4,1-73.5-38.9-98.5h0Z"/>
  <path class="st4" d="M566.6,695.3h-273.2l41-232.8c3.5-20,20.9-34.5,41.1-34.5h108.9c20.3,0,37.6,14.5,41.1,34.5l41,232.8h0Z"/>
  <path class="st4" d="M399,381.1h61.9v54.9c0,17.1-13.9,31-31,31h0c-17.1,0-31-13.9-31-31v-54.9h0Z"/>
  <ellipse class="st4" cx="274" cy="294.3" rx="77.3" ry="72.4" transform="translate(-77.6 99.1) rotate(-18)"/>
  <ellipse class="st4" cx="586" cy="294.2" rx="72.5" ry="77.3" transform="translate(125 760.5) rotate(-72)"/>
  <path class="st0" d="M599.5,227.7c8.9,94.4-67.1,178.2-169.5,179.3-102.4-1.1-178.4-84.8-169.5-179.3,9.2-95.7,80.5-173.7,169.5-173.7,89,0,160.3,78,169.5,173.7Z"/>
  <path class="st4" d="M442.3,293c1.7,14.3-3.8,27.5-12.3,27.5-8.5,0-14-13.3-12.3-27.5,1.7-14.3,7.2-25,12.3-25,5.2,0,10.7,10.7,12.3,25Z"/>
  <g>
    <ellipse class="st3" cx="350.9" cy="254" rx="19.1" ry="40.2"/>
    <ellipse class="st3" cx="509.1" cy="254" rx="19.1" ry="40.2"/>
    <ellipse class="st2" cx="338.1" cy="233.9" rx="12.8" ry="7.6"/>
    <ellipse class="st2" cx="493.3" cy="233.9" rx="12.8" ry="7.6"/>
  </g>
  <path class="st3" d="M607.4,149.6c-19.4-63.2-109.8-105.2-177.4-105.2s-158,41.9-177.4,105.2c-19.4,63.2,15.6,124.6,15.6,124.6-5.8-20.1,7.5-57.6,57.2-107.7,28.6-28.9,44.3-54.6,52.3-71.1-6.3,33-12.6,65.9-18.9,98.9,47,9,95.2,9,142.2,0-6.3-33-12.6-65.9-18.9-98.9,8.1,16.6,23.7,42.2,52.3,71.1,49.7,50.1,63,87.6,57.2,107.7,0,0,35-61.3,15.7-124.6h0Z"/>
</svg>